<?xml version="1.0" encoding="utf-8"?>
<!-- Generator: Adobe Illustrator 23.0.2, SVG Export Plug-In . SVG Version: 6.00 Build 0)  -->
<svg version="1.1" id="Capa_1" xmlns="http://www.w3.org/2000/svg" xmlns:xlink="http://www.w3.org/1999/xlink" x="0px" y="0px"
	 viewBox="-285.5 40 730 730" style="enable-background:new -285.5 40 730 730;" xml:space="preserve">
<style type="text/css">
	.st0{fill:#0E746A;}
	.st1{fill:#2B2B2B;}
</style>
<path class="st0" d="M402.9,422.2l-54.9,0v21.9l54.9,0c6.1,0,11-4.9,11-11C413.9,427.1,409,422.2,402.9,422.2z"/>
<path class="st0" d="M402.9,367.4l-54.9,0v21.9l54.9,0c6.1,0,11-4.9,11-11C413.9,372.3,409,367.4,402.9,367.4z"/>
<path class="st0" d="M430,312.6l-82,0v21.9l82,0c6.1,0,11-4.9,11-11C441,317.5,436.1,312.6,430,312.6z"/>
<path class="st0" d="M402.9,255.4l-54.9,0v21.9l54.9,0c6.1,0,11-4.9,11-11C413.9,260.3,409,255.4,402.9,255.4z"/>
<path class="st0" d="M402.9,198.3l-54.9,0v21.9l54.9,0c6.1,0,11-4.9,11-11C413.9,203.2,409,198.3,402.9,198.3z"/>
<path class="st0" d="M402.9,586.7l-54.9,0v21.9l54.9,0c6.1,0,11-4.9,11-11C413.9,591.6,409,586.7,402.9,586.7z"/>
<path class="st0" d="M430,477l-82,0V499l82,0c6.1,0,11-4.9,11-11C441,481.9,436.1,477,430,477z"/>
<path class="st0" d="M402.9,531.9l-54.9,0v21.9l54.9,0c6.1,0,11-4.9,11-11C413.9,536.8,409,531.9,402.9,531.9z"/>
<g>
	<g>
		<path class="st1" d="M41.1,561.9c-12.2,0-23.7-5-32-13.9c-8.3,8.9-19.8,13.9-32,13.9c-5.2,0-10.4-0.9-15.3-2.8
			c-17.1-6.4-28.5-22.9-28.4-41.2v-10.6c0-6.7,5.4-12.1,12.1-12.1c6.7,0,12.1,5.4,12.1,12.1V518c0,10.9,8.8,19.7,19.7,19.7
			c10.9,0,19.7-8.8,19.7-19.7v-32.8c-3.5-1.5-6.8-3.7-9.4-6.4l-15.9-17c-6.4-6.6-8.2-16.4-4.6-24.9c4.6-9.7,14.5-15.9,25.2-15.9
			c0.3,0,0.7,0,1,0l31.7,0c0.3,0,0.6,0,0.9,0c10.7,0,20.6,6.2,25.2,15.8c3.7,8.6,1.9,18.3-4.6,24.9l-15.9,16.9
			c-2.7,2.8-5.9,5-9.5,6.5V518c0,10.9,8.8,19.7,19.7,19.7s19.7-8.8,19.7-19.7v-10.6c0-6.7,5.4-12.1,12.1-12.1
			c6.7,0,12.1,5.4,12.1,12.1V518c0.1,18.2-11.3,34.8-28.4,41.1C51.5,561,46.3,561.9,41.1,561.9C41.1,561.9,41.1,561.9,41.1,561.9z
			 M5.1,462.1c1.2,0.8,2.6,1.2,4,1.2c1.4,0,2.8-0.4,4-1.2l15-16.1c-0.5-0.3-1.5-0.8-3.1-0.8H-6.8c-1.6,0-2.6,0.4-3.3,0.8L5.1,462.1z
			"/>
		<path class="st1" d="M25.9,422.6c10.1,0,19.4,5.8,23.8,15c3.4,7.9,1.7,17.1-4.3,23.2l-15.9,17c-2.8,2.9-6.1,5.1-9.9,6.5V518
			c0,11.7,9.5,21.2,21.2,21.2c11.7,0,21.2-9.5,21.2-21.2v-10.6c0-5.9,4.7-10.6,10.6-10.6c5.9,0,10.6,4.7,10.6,10.6V518
			c0.1,17.7-10.9,33.5-27.4,39.7c-4.8,1.8-9.8,2.7-14.8,2.7c-12.1,0-23.8-5.2-32-14.7c-8.2,9.5-19.9,14.7-32,14.7
			c-5,0-10-0.9-14.8-2.7c-16.6-6.2-27.5-22.1-27.4-39.7v-10.6c0-5.9,4.7-10.6,10.6-10.6c5.9,0,10.6,4.7,10.6,10.6V518
			c0,11.7,9.5,21.2,21.2,21.2c11.7,0,21.2-9.5,21.2-21.2v-33.8c-3.7-1.4-7.1-3.6-9.8-6.5l-15.9-17c-6-6.2-7.7-15.3-4.3-23.2
			c4.4-9.2,13.7-15,23.8-15c0.3,0,0.6,0,0.9,0H25C25.3,422.6,25.6,422.6,25.9,422.6 M9.1,464.9c1.7,0,3.5-0.5,5-1.6l15.9-17
			c0.2-0.7-1.3-2.5-5-2.5H-6.8c-3.6,0-5.2,1.8-5.3,2.3l16.2,17.2C5.6,464.3,7.4,464.9,9.1,464.9 M25.9,419.6L25.9,419.6
			c-0.3,0-0.7,0-1,0H-6.7c-0.3,0-0.7,0-1,0c-11.2,0-21.7,6.6-26.5,16.7l0,0.1l0,0.1c-3.9,9-2,19.4,4.9,26.5l15.9,16.9
			c2.6,2.7,5.7,4.9,9,6.4V518c0,10-8.2,18.2-18.2,18.2c-10,0-18.2-8.2-18.2-18.2v-10.6c0-7.5-6.1-13.6-13.6-13.6
			c-7.5,0-13.6,6.1-13.6,13.6V518c-0.1,18.8,11.7,35.9,29.4,42.6c5.1,1.9,10.4,2.9,15.8,2.9c12.1,0,23.5-4.8,32-13.3
			c8.5,8.5,19.9,13.3,32,13.3c5.4,0,10.7-1,15.8-2.9c17.7-6.6,29.5-23.7,29.4-42.6l0-10.6c0-7.5-6.1-13.6-13.6-13.6
			c-7.5,0-13.6,6.1-13.6,13.6V518c0,10-8.2,18.2-18.2,18.2c-10,0-18.2-8.2-18.2-18.2v-31.8c3.4-1.5,6.5-3.7,9-6.4l15.9-17
			c6.9-7.1,8.8-17.4,4.9-26.5l0-0.1l0-0.1C47.6,426.1,37.2,419.6,25.9,419.6L25.9,419.6z M-7.3,446.8c0.2,0,0.3,0,0.5,0H25
			c0.1,0,0.3,0,0.4,0L12.1,461c-0.9,0.6-1.9,0.9-3,0.9c-1.1,0-2.1-0.3-3-0.9L-7.3,446.8L-7.3,446.8z"/>
	</g>
	<g>
		<path class="st1" d="M-54.6,413.3c-5.6,0-10.5-3.8-11.8-9.3c-2.2-8-7.4-14.7-14.6-18.9c-4.4-2.3-9.7-3.5-15.7-3.5
			c-7.9,0-17.2,2.1-27.7,6.2c-1.4,0.6-2.9,0.8-4.4,0.8c-5,0-9.4-3-11.3-7.7c-2.4-6.2,0.7-13.2,6.9-15.7c13.3-5.2,25.6-7.8,36.6-7.8
			c10.1,0,19.3,2.2,27.3,6.5c13.2,7.5,22.8,20.2,26.5,34.8c1.3,6.5-2.9,12.9-9.3,14.2C-52.8,413.2-53.7,413.3-54.6,413.3
			L-54.6,413.3z"/>
		<path class="st1" d="M-96.5,358.9c9.9,0,18.7,2.1,26.6,6.3c12.9,7.3,22.2,19.5,25.8,33.9c1.1,5.7-2.5,11.2-8.2,12.4
			c-0.8,0.2-1.5,0.2-2.3,0.2c-4.8,0-9.2-3.3-10.3-8.2c-2.3-8.4-7.8-15.5-15.3-19.8c-4.7-2.5-10.2-3.7-16.4-3.7
			c-8.1,0-17.6,2.1-28.2,6.3c-1.3,0.5-2.6,0.7-3.9,0.7c-4.2,0-8.2-2.6-9.9-6.7c-2.1-5.5,0.6-11.6,6-13.7
			C-119.5,361.5-107.4,358.9-96.5,358.9 M-96.5,355.9l0,3L-96.5,355.9c-11.2,0-23.7,2.7-37.2,7.9c-7,2.7-10.5,10.6-7.7,17.6
			c2.1,5.3,7,8.7,12.7,8.7c1.7,0,3.4-0.3,5-0.9c10.3-4,19.4-6.1,27.2-6.1c5.7,0,10.8,1.1,15,3.3c6.8,4,11.8,10.3,13.9,17.9
			c1.5,6.1,6.9,10.4,13.2,10.4c1,0,1.9-0.1,2.9-0.3c7.2-1.6,11.9-8.7,10.5-15.9l0-0.1l0-0.1c-3.8-15.1-13.7-28.1-27.2-35.8l0,0l0,0
			C-76.8,358.2-86.2,355.9-96.5,355.9L-96.5,355.9z"/>
	</g>
	<g>
		<path class="st1" d="M62.1,413.5c-0.8,0-1.7-0.1-2.5-0.3c-3.1-0.7-5.9-2.6-7.6-5.3c-1.8-2.7-2.3-6-1.7-9.1
			c3.7-14.7,13.4-27.4,26.5-34.9c8.1-4.3,17.2-6.5,27.3-6.5c11,0,23.4,2.6,36.6,7.8c3,1.2,5.4,3.5,6.7,6.4c1.3,3,1.4,6.3,0.2,9.3
			c-1.8,4.7-6.3,7.7-11.3,7.7c0,0,0,0,0,0c-1.5,0-3-0.3-4.4-0.8c-10.5-4.1-19.8-6.2-27.7-6.2c-6.1,0-11.4,1.2-15.9,3.6
			c-7.1,4.1-12.2,10.8-14.4,18.7c-0.6,3-2.6,5.8-5.2,7.5C66.7,412.8,64.5,413.5,62.1,413.5z"/>
		<path class="st1" d="M104.1,358.9c10.9,0,22.9,2.6,36.1,7.7c5.5,2.1,8.2,8.3,6,13.7c-1.6,4.2-5.6,6.7-9.9,6.7
			c-1.3,0-2.6-0.2-3.9-0.7c-10.7-4.2-20.1-6.3-28.3-6.3c-6.3,0-11.9,1.3-16.6,3.8c-7.4,4.3-12.9,11.4-15.1,19.6
			c-0.6,2.7-2.2,5.2-4.6,6.7c-1.7,1.1-3.7,1.7-5.8,1.7c-0.7,0-1.5-0.1-2.2-0.2c-2.7-0.6-5.2-2.2-6.7-4.6c-1.5-2.4-2.1-5.2-1.5-8
			c3.6-14.3,12.9-26.6,25.8-33.9C85.4,361,94.3,358.9,104.1,358.9 M104.1,355.9c-10.3,0-19.8,2.3-28,6.7l0,0l0,0
			c-13.5,7.7-23.4,20.7-27.2,35.8l0,0.1l0,0.1c-0.8,3.5-0.1,7.2,1.9,10.2c2,3,5.1,5.2,8.6,5.9c0.9,0.2,1.9,0.3,2.8,0.3
			c2.6,0,5.2-0.8,7.4-2.2c3-1.9,5.1-5,5.9-8.5c2.1-7.5,6.9-13.8,13.7-17.7c4.2-2.3,9.3-3.4,15.2-3.4c7.7,0,16.9,2,27.2,6
			c1.6,0.6,3.3,0.9,5,0.9c5.6,0,10.6-3.4,12.7-8.7c1.3-3.4,1.3-7.1-0.2-10.4c-1.5-3.3-4.1-5.9-7.5-7.2
			C127.9,358.6,115.4,355.9,104.1,355.9L104.1,355.9z"/>
	</g>
	<g>
		<path class="st1" d="M4.9,625.6c-25.6,0-51.4-2.4-76.7-7.1c-22.4-2.8-65.7-11.1-103.4-34.3c-51.1-31.4-66.5-82.9-70.9-105.4
			c-4.9,1.9-9.5,4.2-13.8,6.9c-2,1.3-4.3,2.1-6.8,2.1c-1.8,0-3.7-0.4-5.3-1.2c-3.9-1.9-6.5-5.8-6.7-10.1c-0.3-4.3,1.8-8.5,5.5-10.9
			c8.3-5.2,17.1-9.3,26.4-12.2c0.2-16.6,2.6-33,7.2-48.9c-8.9-1-18-1.6-26.9-1.6c-6.7,0-12.1-5.4-12.1-12.1
			c0-6.7,5.4-12.1,12.1-12.1c11.7,0,23.6,0.8,35.2,2.4c4.4-10.5,9.5-20.8,15.3-30.6c-8.6-28.1-33.6-118.5-10.3-150.6
			c5.2-7.5,13.8-12,23-12l0.4,0c11.6,0.9,22.8,3.5,33.5,7.9l0.3,0.1l0.2,0.3c0.1,0.1,0.1,0.1,0.1,0.1c1.5,0.5,3.3,1.2,5.4,2.2
			c1.6,0.8,3.2,1.6,4.7,2.4l0,0l1.2,0.5c12.4,6.2,27.7,15.6,30.4,17.3l0.5,0l0.4,0.2c10.9,6.6,22.4,14.1,34.4,22.4
			c31.9-14.2,65.9-21.3,100.8-21.3c35,0,69,7.2,101,21.4c14.7-10.3,28.6-19.3,41.5-26.8c15.4-8.2,27.1-14.3,32.8-17.3
			c11.8-5.2,24.2-8.3,37-9.3l0.5,0c9.2,0,17.7,4.5,22.9,12c23.4,32.2-1.7,122.9-10.4,151.1c5.7,9.7,10.8,19.8,15.1,30.2
			c11.6-1.6,23.5-2.4,35.2-2.4c6.7,0,12.1,5.4,12.1,12.1c0,6.7-5.4,12.1-12.1,12.1c-9,0-18,0.5-26.9,1.6c4.6,15.9,7,32.3,7.2,48.9
			c9.3,2.8,18.2,6.9,26.4,12.1c3.6,2.4,5.7,6.6,5.5,10.9c-0.3,4.3-2.9,8.2-6.7,10.1c-1.7,0.8-3.5,1.2-5.3,1.2c0,0,0,0,0,0
			c-2.4,0-4.8-0.7-6.8-2.1c-4.7-3-9.7-5.5-14.9-7.4c-1.6,12.1-12.9,76.4-73.5,109.8c-34.4,18.9-74.2,26.6-94.9,29.5
			c-26.7,5.3-54.2,8-81.4,8c-1.4,0-2.8,0-4.2,0C7.7,625.6,6.3,625.6,4.9,625.6z M9.1,601.3c1.2,0,2.5,0,3.7,0
			c20.4,0,41-1.6,61.2-4.7c0.7-0.1,58.6-6.3,103.4-30.9c50.7-27.9,61.2-87,62.3-94c-16.6-3.2-33.5-5-50.4-5.3
			c-6.6,0-12.1-5.4-12.1-12.1c0-6.7,5.4-12.1,12.1-12.1c17.1,0.2,34.4,1.9,51.2,5c-0.7-13.2-2.9-26.2-6.8-38.8
			c-20.9,4.3-40.6,12.3-58.5,23.8c-2,1.4-4.4,2.2-7,2.2c-3.8,0-7.4-1.8-9.7-4.9c-3.9-5.3-2.9-12.8,2.3-16.8l0.1-0.1
			c19.6-13.1,41.2-22.2,64.2-27.3c-4.1-9.2-8.8-18.2-14.2-26.7c-1.9-3-2.4-6.8-1.2-10.2c19.4-59.3,26.3-119.7,15.4-134.7l-0.1-0.1
			c-0.7-1.2-2-1.9-3.3-1.9c-0.1,0-0.1,0-0.2,0c-18.3,0-55.9,19.3-103.1,52.9c-2.1,1.5-4.5,2.2-7,2.2c-1.8,0-3.6-0.4-5.2-1.2
			c-30.1-14.4-63.7-22.1-97.1-22.1c-33.3,0-66.9,7.6-97,22c-1.6,0.8-3.4,1.2-5.2,1.2c-2.5,0-4.9-0.8-7-2.2
			c-19-13.7-39-26.4-59.7-37.6c-0.4-0.1-0.7-0.3-1.1-0.5l-0.1,0l-0.1,0c-0.2-0.1-0.3-0.2-0.3-0.3c-12.6-7.8-27.1-12.8-41.9-14.4
			c0,0-0.1,0-0.1,0c-1.4,0-2.7,0.7-3.4,1.9l0,0.1l0,0.1c-10.8,14.9-3.9,75.2,15.4,134.3c1.1,3.4,0.7,7.1-1.2,10.2
			c-5.4,8.7-10.2,17.8-14.4,27.1c23,5,44.6,14.2,64.2,27.3l0.1,0.1c5.2,4,6.2,11.6,2.3,16.8c-2.3,3-5.9,4.9-9.7,4.9
			c-2.5,0-5-0.8-7.1-2.3c-17.9-11.5-37.6-19.5-58.5-23.8c-3.8,12.6-6.1,25.6-6.8,38.8c16.8-3.1,34.1-4.8,51.2-5
			c6.7,0,12.1,5.4,12.1,12.1c0,6.7-5.4,12.1-12.1,12.1c-16.8,0.3-33.8,2.1-50.3,5.3c0.1,0.6,0.2,1.3,0.3,1.9
			c3.6,17.9,16.6,62.5,59.2,88.8c44.7,27.5,102.3,33.6,102.8,33.6c21.4,3.5,43.1,5.2,64.6,5.2C6.7,601.4,7.9,601.4,9.1,601.3
			L9.1,601.3L9.1,601.3z"/>
		<path class="st1" d="M221.9,189.3c8.6,0,16.8,4.2,21.7,11.4c23.6,32.5-3.8,127.8-10.7,150.4c6,10.1,11.3,20.7,15.8,31.6
			c12-1.7,24.1-2.5,36.2-2.6c5.9,0,10.6,4.7,10.6,10.6c0,5.9-4.7,10.6-10.6,10.6c-9.7,0-19.3,0.6-28.9,1.8c5,16.6,7.6,33.9,7.7,51.2
			v0.1c9.6,2.8,18.7,7,27.1,12.3c3.2,2.1,5,5.7,4.8,9.5c-0.2,3.8-2.5,7.2-5.9,8.9c-1.5,0.7-3.1,1.1-4.7,1.1c-2.1,0-4.2-0.6-6-1.8
			c-5.3-3.4-11.1-6.2-17-8.2c-0.3,2.8-8.1,74.8-73,110.5c-33.6,18.4-71.9,26.2-94.4,29.4c-26.7,5.3-53.9,8-81.2,8
			c-1.4,0-2.8,0-4.2,0c-1.4,0-2.8,0-4.2,0c-25.7,0-51.3-2.4-76.5-7.1c-20.2-2.6-64.7-10.6-102.9-34.1
			c-52.1-32.1-66.7-85.3-70.5-106.1c-5.5,2-10.8,4.6-15.7,7.7c-1.8,1.2-3.9,1.8-6,1.8c-1.6,0-3.2-0.4-4.7-1.1
			c-3.4-1.7-5.7-5.1-5.9-8.9c-0.2-3.8,1.6-7.4,4.8-9.5c8.4-5.3,17.5-9.5,27.1-12.3v-0.1c0.1-17.3,2.7-34.6,7.7-51.2
			c-9.6-1.2-19.2-1.8-28.9-1.8c-5.9,0-10.6-4.7-10.6-10.6c0-5.9,4.7-10.6,10.6-10.6c12.1,0,24.2,0.9,36.2,2.5
			c4.5-11.1,9.9-21.8,16-32.1c-7-22.6-34.1-117.6-10.7-150c4.9-7.1,13.1-11.4,21.7-11.4c0.1,0,0.3,0,0.4,0c11.4,0.9,22.5,3.5,33,7.7
			c0.2,0.2,0.4,0.4,0.7,0.5c1.5,0.5,3.3,1.2,5.3,2.1c1.9,0.9,3.9,1.9,5.8,2.9c0,0,0.1-0.1,0.1-0.1c13.6,6.9,30.7,17.5,30.7,17.5
			l0.5,0c10.8,6.6,22.5,14.1,35,22.9c32.1-14.4,66.6-21.6,101-21.6c34.5,0,69,7.2,101.2,21.7c15.3-10.7,29.3-19.7,42.1-27.2
			c15.4-8.3,27.3-14.4,32.7-17.2c11.5-5.1,23.8-8.1,36.4-9.1C221.6,189.3,221.8,189.3,221.9,189.3 M-150.1,433.1
			c-2.1,0-4.3-0.7-6.2-2c-18.4-11.8-38.9-20.1-60.4-24.3c-4.3,13.7-6.7,28-7.3,42.3c17.4-3.3,35.1-5.1,52.8-5.3
			c5.9,0,10.6,4.7,10.6,10.6c0,5.9-4.7,10.6-10.6,10.6c-17.5,0.3-34.9,2.2-52,5.6c0.1,1.1,0.3,2.3,0.5,3.4
			c3.6,18.1,16.7,63.3,59.9,89.9c45.6,28,103.5,33.8,103.5,33.8c21.4,3.5,43,5.2,64.7,5.2c1.2,0,2.4,0,3.7,0c1.2,0,2.5,0,3.7,0
			c20.6,0,41.1-1.6,61.5-4.7c0,0,58.3-6,103.8-31.1c50.5-27.8,61.6-85.5,63.1-95.2c0.1-0.4,0.1-0.9,0.2-1.3
			c-17.1-3.4-34.5-5.2-52-5.6c-5.9,0-10.6-4.7-10.6-10.6c0-5.9,4.7-10.6,10.6-10.6c17.7,0.3,35.4,2,52.8,5.3
			c-0.6-14.4-3-28.6-7.3-42.3c-21.5,4.2-42,12.5-60.4,24.3c-1.9,1.3-4,2-6.2,2c-3.2,0-6.4-1.5-8.5-4.3c-3.5-4.6-2.6-11.2,2-14.7
			c19.9-13.2,42.1-22.5,65.5-27.4c-4.3-9.9-9.3-19.4-15-28.6c-1.7-2.7-2.1-5.9-1.1-8.9c19.5-59.7,26.4-120.7,15.2-136.1
			c-1-1.6-2.7-2.6-4.6-2.6c-0.1,0-0.2,0-0.3,0c-18.5,0-56.4,19.4-103.9,53.2c-1.8,1.3-4,2-6.1,2c-1.6,0-3.1-0.3-4.6-1
			C76,249.8,42.5,242.4,9.1,242.4c-33.4,0-66.7,7.4-97.6,22.1c-1.4,0.7-3,1-4.5,1c-2.2,0-4.3-0.7-6.1-2
			c-19.1-13.9-39.1-26.5-59.9-37.7c-0.4-0.1-0.7-0.3-1.1-0.5c-0.1-0.1-0.1-0.2-0.2-0.2c-12.9-8-27.5-13-42.6-14.7
			c-0.1,0-0.2,0-0.3,0c-1.9,0-3.7,1-4.7,2.7c-11.1,15.3-4.3,76.1,15.2,135.6c1,3,0.6,6.3-1.1,8.9c-5.8,9.3-10.9,18.9-15.2,29
			c23.4,4.9,45.6,14.2,65.5,27.4c4.6,3.5,5.4,10.1,2,14.7C-143.7,431.6-146.9,433.1-150.1,433.1 M221.9,186.3L221.9,186.3
			c-0.2,0-0.3,0-0.5,0l-0.1,0l-0.1,0c-12.9,1-25.5,4.1-37.4,9.4l-0.1,0l-0.1,0c-5.7,2.9-17.4,9-32.7,17.2l0,0l0,0
			c-12.7,7.4-26.5,16.3-40.9,26.4c-32-14.1-65.9-21.2-100.9-21.2c-34.9,0-68.7,7.1-100.7,21.1c-11.7-8.1-23.1-15.5-33.7-22l-0.8-0.5
			l-0.5,0c-3.6-2.2-18.3-11.1-30.1-17.1l-2.3-1.2l-0.1,0.1c-1.2-0.6-2.3-1.2-3.6-1.8l0,0l0,0c-2-0.9-3.7-1.6-5.2-2.1l-0.3-0.3
			l-0.7-0.3c-10.9-4.4-22.3-7.1-33.9-8l-0.1,0l-0.1,0c-0.2,0-0.3,0-0.5,0c-9.6,0-18.7,4.7-24.2,12.7c-23.5,32.5,1.1,122.4,9.9,151.3
			c-5.5,9.4-10.4,19.2-14.6,29.2c-11.3-1.5-22.8-2.3-34.3-2.3c-7.5,0-13.6,6.1-13.6,13.6c0,7.5,6.1,13.6,13.6,13.6
			c8.3,0,16.7,0.5,25,1.4c-4.2,15.2-6.5,30.8-6.8,46.5c-9,2.9-17.7,6.9-25.7,12c-4.1,2.7-6.5,7.4-6.2,12.2c0.3,4.9,3.2,9.2,7.6,11.4
			c1.9,0.9,3.9,1.4,6,1.4c2.7,0,5.4-0.8,7.6-2.3c3.7-2.4,7.7-4.4,11.8-6.1c4.9,23.5,20.9,73.6,71.2,104.6
			c37.9,23.4,81.4,31.7,104,34.5c25.3,4.7,51.2,7.1,76.9,7.1c1.4,0,2.8,0,4.2,0c1.4,0,2.8,0,4.2,0c27.3,0,54.8-2.7,81.7-8.1
			c20.8-2.9,60.7-10.7,95.3-29.7c58.6-32.2,71.6-93,74-109c4.5,1.8,8.8,4,12.9,6.6c2.3,1.5,4.9,2.3,7.6,2.3c2.1,0,4.1-0.5,6-1.4
			c4.4-2.2,7.3-6.5,7.6-11.4c0.3-4.9-2.1-9.6-6.1-12.2c-8.1-5.1-16.7-9.1-25.8-12c-0.3-15.7-2.5-31.4-6.8-46.5
			c8.3-0.9,16.7-1.4,25-1.4c7.5,0,13.6-6.1,13.6-13.6c0-7.5-6.1-13.6-13.6-13.6c-11.4,0-22.9,0.8-34.3,2.3
			c-4.1-9.8-9-19.5-14.4-28.7c8.8-29,33.5-119.1,9.9-151.7C240.6,191,231.5,186.3,221.9,186.3L221.9,186.3z M-204.9,384.5
			c3.9-8.7,8.5-17.2,13.5-25.2c2.1-3.4,2.7-7.6,1.4-11.4c-20.8-63.7-24.8-120.2-15.6-132.9l0.1-0.1l0.1-0.1c0.4-0.7,1.2-1.2,2.1-1.2
			c0,0,0.1,0,0.1,0c14.5,1.6,28.6,6.5,41,14.1c0.1,0.1,0.3,0.2,0.5,0.4l0.1,0.1l0.1,0.1c0.4,0.2,0.7,0.3,1.1,0.5
			c20.5,11.2,40.5,23.7,59.4,37.4c2.3,1.7,5.1,2.5,7.9,2.5c2,0,4-0.4,5.8-1.3C-57.3,253-24,245.4,9.1,245.4
			c33.2,0,66.6,7.6,96.5,21.9c1.8,0.9,3.8,1.3,5.9,1.3c2.8,0,5.6-0.9,7.9-2.5c47-33.4,84.2-52.6,102.2-52.6h0.1l0.1,0
			c0,0,0.1,0,0.1,0c0.8,0,1.6,0.4,2,1.2l0.1,0.1l0.1,0.1c9.3,12.8,5.3,69.5-15.6,133.4c-1.3,3.8-0.8,8,1.4,11.4
			c4.9,7.9,9.4,16.3,13.3,24.8c-22.5,5.2-43.6,14.3-62.9,27.1l-0.1,0.1l-0.1,0.1c-5.8,4.5-7,13-2.6,18.9c2.6,3.4,6.6,5.5,10.9,5.5
			c2.8,0,5.6-0.9,7.9-2.5c17.4-11.2,36.4-19,56.6-23.3c3.4,11.5,5.4,23.3,6.2,35.2c-16.3-2.9-33-4.4-49.6-4.7
			c-7.5,0-13.7,6.1-13.7,13.6c0,7.5,6.1,13.6,13.6,13.6c16.3,0.3,32.6,2,48.6,5c-1,6-4.3,21.2-12.6,38.5
			c-11.5,23.8-27.9,41.6-48.7,53.1c-44.5,24.5-102.1,30.6-102.7,30.7l-0.1,0l-0.1,0c-20.1,3.1-40.7,4.7-61,4.7c-1.2,0-2.4,0-3.7,0
			l0,0l0,0c-1.2,0-2.4,0-3.6,0c-21.4,0-43-1.8-64.3-5.2l-0.1,0l-0.1,0c-0.6-0.1-57.8-6.1-102.2-33.4c-42.1-25.9-55-70-58.6-87.8
			c0-0.1,0-0.3-0.1-0.4c16-3,32.4-4.7,48.7-5c7.5,0,13.6-6.1,13.6-13.6c0-7.5-6.1-13.6-13.6-13.6c-16.6,0.2-33.3,1.8-49.6,4.7
			c0.7-11.9,2.8-23.7,6.2-35.2c20.2,4.3,39.2,12.2,56.6,23.3c2.3,1.6,5,2.5,7.9,2.5c4.3,0,8.3-2,10.9-5.5c4.4-5.9,3.3-14.4-2.5-18.9
			l-0.1-0.1l-0.1-0.1C-161.2,398.8-182.4,389.7-204.9,384.5L-204.9,384.5z"/>
	</g>
</g>
</svg>
