<?xml version="1.0" encoding="utf-8"?>
<!-- Generator: Adobe Illustrator 23.0.2, SVG Export Plug-In . SVG Version: 6.00 Build 0)  -->
<svg version="1.1" id="Capa_1" xmlns="http://www.w3.org/2000/svg" xmlns:xlink="http://www.w3.org/1999/xlink" x="0px" y="0px"
	 viewBox="-143 17.2 700 700" style="enable-background:new -143 17.2 700 700;" xml:space="preserve">
<style type="text/css">
	.st0{fill:#0E746A;}
	.st1{fill:#2B2B2B;stroke:#2B2B2B;stroke-width:5;stroke-miterlimit:10;}
</style>
<path class="st0" d="M393.7,196.1c-6,0-10.9,4.9-10.9,10.9c0,6,4.9,10.9,10.9,10.9c6,0,10.9-4.9,10.9-10.9
	C404.6,201,399.7,196.1,393.7,196.1L393.7,196.1z M393.7,196.1"/>
<g>
	<g>
		<path class="st0" d="M357.9,317.4c-11.6,0-29.6-1.6-51.4-8.9c-37.1-12.5-47.3-21.3-48.4-22.3l10.2-11l-0.1-0.1
			c0.1,0.1,9.4,7.8,43.1,19.2c34.4,11.6,58,7.4,58.3,7.4l2.7,14.8C371.8,316.5,366.6,317.4,357.9,317.4z"/>
	</g>
</g>
<g>
	<g>
		<path class="st0" d="M360.3,343.5c-12.9,0-32.9-1.8-57.1-9.7c-41.3-13.6-52.6-23.2-53.7-24.2l10.1-11.1l-0.1-0.1
			c0.1,0.1,10.5,8.7,48.4,21.2c38.7,12.8,65.3,8.2,65.6,8.2l2.7,14.8C375.7,342.6,370,343.5,360.3,343.5z"/>
	</g>
</g>
<path class="st1" d="M457.5,223.4c0-0.5,0-1.1-0.1-1.6c-0.3-2.4-1.3-5-3.1-8.4c0-0.1-0.1-0.2-0.2-0.3c-4-7.4-29.5-40.6-31.1-42.8
	c-6.4-9.1-27.3-13.3-40.9-15.1v-40c0-4.7-4.4-8.3-9-7.5c-2,0.4-49.2,9.4-64.8,54.3c-9.6,4.6-35.1,19.9-44.3,58.2
	c-1.4,6-2.6,12.7-3.9,19.7c-5.2,29.1-11.6,65.1-42.7,98l-0.1-0.1c-17,17.6-32.7,26.5-32.9,26.6l0.2,0.3
	c-11.7,7.6-25.1,14.5-39.8,20.6c-66.1,27.7-88.6,94.5-82.8,150.2C31,520,12.3,494,6.8,458.2c-7.1-45.8,3.4-81,31.3-104.6
	c21.3-18.1,45.9-23.2,46-23.3c13-2.4,21.7-15,19.2-28.1c-2.4-13-15-21.6-28.1-19.2c-1.4,0.3-35.8,6.9-67,32.8
	c-22.5,18.6-48.5,51.9-51.3,107.1l-0.2,0c-1.2,17.1,1.1,34.6,3.4,47.1c-0.1,0.6,0,1.3,0.1,2c6.8,38,24.7,71.7,51.5,97.6
	c24.4,23.5,53.9,37.9,83.3,40.7c12.2,11.4,26.9,17.3,42.5,17.3H309c4,0,7.3-3.1,7.6-7.1c0.1-0.9,1.2-21.2-12.5-35.9
	c-8.1-8.7-19.5-13.5-33.8-14.3c17-9.3,28-22.6,32.6-39.2l26.8,75.9c4.4,12.3,16.1,20.6,29.2,20.6h56.9c4.2,0,7.6-3.4,7.6-7.6
	c0-15.8-8.2-29.2-23.8-38.8c-6.1-3.7-12.2-6.2-16.5-7.6v-5.2h0.2v-58.2h-0.2v-21.8c20.7-26.3,30.6-55.3,29.2-86.1
	c-1.2-28.3-11.6-47.9-13.7-51.5l-0.9-1.6c-4.4-7.7-15.5-26.9-13-39.5c0-0.1,0-0.1,0-0.2c0.2-1.2,0.6-2.3,1.1-3.4
	c2.5-5.2,8.6-8.6,18.4-10.1c22.2-3.5,38.4-16.2,46.8-36.9C454.4,250.9,458.1,230.7,457.5,223.4z M401.9,281
	c-15,2.3-25,8.6-29.8,18.6c-0.1,0.2-0.1,0.3-0.2,0.5c0,0,0,0-0.1,0c-1.1,3.6-2.7,10.1-2.5,17.6c0.5,5.2,1.8,10.4,3.6,15.4
	c-0.2,0-0.3,0-0.5,0c2.4,7.2,5.1,12.3,6.8,15.2c0.1,0,0.3,0,0.4,0c1.8,3.4,3.5,6.3,4.8,8.7l0.9,1.5c1.4,2.5,34.1,61.4-15.8,122.6
	c-1.1,1.4-1.7,3.1-1.7,4.8v38c0,0.6,0.1,1.2,0.2,1.8v26.9c-0.1,0.6-0.2,1.2-0.2,1.8v25.1c0,3.6,2.5,6.7,6,7.5
	c0.1,0,9.3,2.1,18.2,7.6c8,5,13,11,15.1,17.9H359c-6.6,0-12.6-4.2-14.8-10.4l-44.5-125.7c-1.4-4-5.7-6-9.7-4.7
	c-4,1.4-6.1,5.7-4.7,9.7c3.2,9.4,4.8,19.8,4.8,31c0,22.3-11,37.9-33.6,47.8c-19.5,8.5-42,9.9-50.8,10.1c-4.2,0.1-7.5,3.5-7.5,7.7
	c0,4.2,3.4,7.5,7.6,7.5h60c11.9,0,21,3.2,26.9,9.5c5.1,5.4,7.2,12.3,8,17.4H137.6c-12.5,0-23.9-5-33.8-14.9c-1.3-1.3-3-2.1-4.8-2.2
	C52.5,591.9-3.3,551.8-21.6,483.3l0.3-0.1c-0.1-0.2-5.4-19.6-6.7-41.6c0.1-0.6,0.2-1.2,0.2-1.8C-30,380.2-4.1,345.8,18,327.5
	c28.2-23.4,58.8-29.3,60.1-29.5c4.8-0.9,9.4,2.3,10.3,7c0.9,4.8-2.3,9.4-7.1,10.3c-1.2,0.2-28.5,5.8-53,26.6
	C-4,369.2-16.2,409.1-8.3,460.5c6.8,43.8,30.7,74.8,71.2,92.2c4.3,1.9,9.5,4.8,13.8,1.2c2.1-1.8,3.1-4.6,2.6-7.3
	c-14.6-74.3,26.9-128.4,71.6-147.2c18.2-7.6,34.5-16.4,48.4-26.1c0.5-0.3,0.9-0.7,1.3-1.2c5.6-3.9,13.5-9.9,22.1-18.1
	c0.4-0.3,0.9-0.6,1.2-1c12.9-12.6,22.3-25.8,29.3-38.9c0,0,0-0.1,0-0.1s3.7-6.3,8.1-17.2c0,0,0,0,0,0c2.6-6.6,4.7-13.1,6.5-19.4
	c0,0,0.1,0.1,0.1,0.1c1.5-5.4,2.9-11.2,4.1-17.4c1.3-6.2,2.3-12.1,3.3-17.7c1.2-6.8,2.4-13.2,3.7-18.8c9.1-38.2,37-48.5,38.1-48.9
	c2.3-0.8,4.1-2.7,4.8-5c8.4-28,31.9-40,45-44.6V162c0,3.9,3,7.2,6.9,7.6c16.6,1.7,34.1,6.2,36.7,9.5c1.8,2.5,4.6,6.2,8.3,10.9
	c4.6,5.9,13.5,17.3,18.9,25.5c-1.5,2.3-2.4,5-2.4,7.9c0,4.9,2.4,9.2,6.1,11.8C439.2,253.8,430.5,276.5,401.9,281z"/>
</svg>
