<?xml version="1.0" encoding="utf-8"?>
<!-- Generator: Adobe Illustrator 23.0.2, SVG Export Plug-In . SVG Version: 6.00 Build 0)  -->
<svg version="1.1" id="Layer_1" xmlns="http://www.w3.org/2000/svg" xmlns:xlink="http://www.w3.org/1999/xlink" x="0px" y="0px"
	 viewBox="0 0 580 580" style="enable-background:new 0 0 580 580;" xml:space="preserve">
<style type="text/css">
	.st0{stroke:#EF517E;stroke-width:6;stroke-miterlimit:10;}
	.st1{fill:none;}
	.st2{fill:#008C88;}
	.st3{fill:#2B2C2B;}
</style>
<path class="st0" d="M1250.3,523.7"/>
<rect x="33.8" y="75.2" class="st1" width="543.7" height="429.6"/>
<g>
	<g>
		<path class="st2" d="M229,301.4l20.2-46.5l23.1,97.6c1.3,5.1,5.3,8.8,10.3,9.5l0.2,0c0.4,0.1,1,0.1,1.8,0.1c4.4,0,8.4-2.3,10.7-6
			l45.7-75.3h49.6c6.9,0,12.5-5.6,12.5-12.5c0-7-5.6-12.7-12.5-12.7h-56.6c-4.4,0-8.5,2.3-10.9,6.2l-33.6,55.1L265,212.1
			c-1.2-5.3-5.7-9.1-11.2-9.6c-5.2-0.6-10.4,2.5-12.7,7.5L209,283.9h-75.8H114H85.5h-21H35c-6.8,0-12.5,5.7-12.5,12.5
			c0,7,5.6,12.7,12.5,12.7h182.3C222.4,309.1,226.9,306.2,229,301.4z"/>
	</g>
</g>
<g>
	<path class="st3" d="M483.2,100.8c-51.1-28.2-119.1-19.6-161.6,20.4l-2.1,1.9l-2.1-1.9c-42.6-40.1-110.6-48.7-161.7-20.5
		c-44.3,24.3-71.8,70.8-71.8,121.3c0,14.2,2.3,28.5,6.6,41.3l0.1,0.3c1.7,7,4.2,14.5,7.5,22.1l1.8,4.2h28.4l-0.8-1.6
		c-6.6-12.3-10.5-22-12.6-31.6c-3.7-11.2-5.6-22.9-5.6-34.7c0-41.2,22.5-79.2,58.6-99.2c22.4-12.3,49.2-16.3,75.6-11.4
		c26.4,5,49.9,18.6,66.3,38.3c2.3,2.7,5.9,4.3,9.8,4.3c0,0,0.1,0,0.1,0c3.9,0,7.4-1.6,9.6-4.3c16.4-19.7,40-33.3,66.3-38.3
		c26.4-5,53.2-0.9,75.6,11.5c36.1,19.9,58.6,57.9,58.6,99.2c0,11.9-2,23.8-6,36.2c-15.3,68.5-134.4,161.7-202.4,206l-1.7,1.1
		l-1.6-1.1c-36.5-24.2-71-50.2-99.9-75c-2.4-2-5.3-2.9-8.1-2.9c-3.6,0-7.2,1.5-9.8,4.4c-4.5,5.3-3.8,13.2,1.5,17.8
		c50.9,43.7,101.2,76.2,110.8,82.3l0.2,0.1c2,1.3,4.3,2,6.7,2c2.6,0,4.7-0.6,6.8-1.9c8.2-5.2,199.9-127,221.8-225.9l0.1-0.3
		c4.7-13.9,7-28.3,7-42.8C555,171.6,527.5,125.1,483.2,100.8z"/>
</g>
</svg>
