<?xml version="1.0" encoding="utf-8"?>
<!-- Generator: Adobe Illustrator 23.0.2, SVG Export Plug-In . SVG Version: 6.00 Build 0)  -->
<svg version="1.1" id="Layer_1" xmlns="http://www.w3.org/2000/svg" xmlns:xlink="http://www.w3.org/1999/xlink" x="0px" y="0px"
	 viewBox="0 0 700 700" style="enable-background:new 0 0 700 700;" xml:space="preserve">
<style type="text/css">
	.st0{fill:#008C88;}
	.st1{fill:#2B2C2B;}
</style>
<path class="st0" d="M350.1,357.8c-54.8,0-99.4,44.6-99.4,99.4c0,54.8,44.6,99.4,99.4,99.4s99.4-44.6,99.4-99.4
	S404.9,357.8,350.1,357.8L350.1,357.8z M350.1,536.6c-43.8,0-79.4-35.6-79.4-79.4c0-43.8,35.6-79.4,79.4-79.4s79.4,35.6,79.4,79.4
	C429.4,501,393.8,536.6,350.1,536.6L350.1,536.6z M350.1,536.6"/>
<path class="st0" d="M377,416.1l-34,34c-3.9,3.9-3.9,10.2,0,14.1c2,2,4.5,2.9,7.1,2.9s5.1-1,7.1-2.9l34-34c3.9-3.9,3.9-10.2,0-14.1
	C387.3,412.2,380.9,412.2,377,416.1L377,416.1z M377,416.1"/>
<path class="st0" d="M339.1,136.9h-81.3c-5.5,0-10,4.5-10,10c0,5.5,4.5,10,10,10h81.3c5.5,0,10-4.5,10-10
	C349.1,141.4,344.6,136.9,339.1,136.9L339.1,136.9z M339.1,136.9"/>
<path class="st0" d="M473.1,158.4h-36.7c-5.5,0-10,4.5-10,10c0,5.5,4.5,10,10,10h36.7c5.5,0,10-4.5,10-10
	C483.1,162.9,478.6,158.4,473.1,158.4L473.1,158.4z M473.1,158.4"/>
<g>
	<path class="st1" d="M104.1,606.8c-6.3,0-11.5-5.2-11.5-11.5V452.1c0-31.5,16.9-60.9,44-76.7l110-64.2v-42.5H119.1
		c-6.3,0-11.5-5.2-11.5-11.5v-52c0-6.3,5.2-11.5,11.5-11.5H150c-2.3-5-3.4-10.5-3.4-16v-46.8c0-21.5,17.5-39,39-39h329
		c21.5,0,39,17.5,39,39v46.8c0,5.5-1.2,11-3.4,16h30.9c6.3,0,11.5,5.2,11.5,11.5v52c0,6.3-5.2,11.5-11.5,11.5H453.6v42.5l110,64.2
		c27.2,15.9,44,45.3,44,76.7v143.2c0,6.3-5.2,11.5-11.5,11.5H104.1z M584.6,583.8v-17h-0.3v-23h0.3v-91.7
		c0-23.3-12.5-45.1-32.6-56.9l-110.6-64.6H258.8l-110.6,64.6c-20.1,11.8-32.6,33.6-32.6,56.9v131.7H584.6z M430.6,307.6v-39h-161v39
		H430.6z M569.6,245.6v-29h-439v29H569.6z M185.6,114.8c-8.8,0-16,7.2-16,16v46.8c0,8.8,7.2,16,16,16h329c8.8,0,16-7.2,16-16v-46.8
		c0-8.8-7.2-16-16-16H185.6z"/>
	<path d="M514.6,93.3c20.7,0,37.5,16.8,37.5,37.5v46.8c0,6.3-1.6,12.3-4.3,17.5h33.3c5.5,0,10,4.5,10,10v52c0,5.5-4.5,10-10,10h-129
		V312l110.7,64.7c26.7,15.6,43.3,44.5,43.3,75.4v143.2c0,5.5-4.5,10-10,10h-492c-5.5,0-10-4.5-10-10V452.1
		c0-30.9,16.6-59.8,43.3-75.4L248.1,312v-44.9h-106h-23c-5.5,0-10-4.5-10-10v-52c0-5.5,4.5-10,10-10h33.3
		c-2.8-5.2-4.3-11.2-4.3-17.5v-46.8c0-20.7,16.8-37.5,37.5-37.5H514.6 M185.6,195.1h329c9.6,0,17.5-7.9,17.5-17.5v-46.8
		c0-9.6-7.9-17.5-17.5-17.5h-329c-9.6,0-17.5,7.9-17.5,17.5v46.8C168.1,187.2,175.9,195.1,185.6,195.1 M129.1,247.1h13h429v-32h-442
		V247.1 M268.1,309.1h164v-42h-164V309.1 M114.1,585.3h472v-20h-0.3v-20h0.3v-93.2c0-23.8-12.8-46.1-33.4-58.2l-111-64.8H258.4
		l-111,64.8c-20.6,12-33.4,34.3-33.4,58.2V585.3 M514.6,90.3h-329c-22.3,0-40.5,18.2-40.5,40.5v46.8c0,5,0.9,9.9,2.7,14.5h-28.7
		c-7.2,0-13,5.8-13,13v52c0,7.2,5.8,13,13,13h23h103v40.2l-109.2,63.8c-27.6,16.1-44.8,46-44.8,78v143.2c0,7.2,5.8,13,13,13h492
		c7.2,0,13-5.8,13-13V452.1c0-32-17.2-61.9-44.8-78l-109.2-63.8v-40.2h126c7.2,0,13-5.8,13-13v-52c0-7.2-5.8-13-13-13h-28.7
		c1.8-4.6,2.7-9.5,2.7-14.5v-46.8C555.1,108.4,536.9,90.3,514.6,90.3L514.6,90.3z M185.6,192.1c-8,0-14.5-6.5-14.5-14.5v-46.8
		c0-8,6.5-14.5,14.5-14.5h329c8,0,14.5,6.5,14.5,14.5v46.8c0,8-6.5,14.5-14.5,14.5H185.6L185.6,192.1z M132.1,218.1h436v26h-426h-10
		V218.1L132.1,218.1z M271.1,270.1h158v36h-158V270.1L271.1,270.1z M259.2,332.1h181.7l110.3,64.4c19.7,11.5,31.9,32.8,31.9,55.6
		v90.2h-0.3v3v20v3h0.3v14h-466V452.1c0-22.8,12.2-44.1,31.9-55.6L259.2,332.1L259.2,332.1z"/>
</g>
</svg>
